<svg xmlns="http://www.w3.org/2000/svg" width="467" height="257" fill="none" viewBox="0 0 467 257"><g filter="url(#filter0_dd_6407_141411)"><rect width="426.263" height="216.462" x="20" y="15.959" fill="#fff" rx="4.44"/></g><circle cx="256.443" cy="98.103" r="8.88" fill="#3F85ED"/><circle cx="256.443" cy="152.496" r="8.88" fill="#C7DBF8"/><path fill="#3F85ED" fill-rule="evenodd" d="M128.231 202.449C171.452 202.449 206.49 167.411 206.49 124.19C206.49 80.9685 171.452 45.9307 128.231 45.9307C85.0094 45.9307 49.9716 80.9685 49.9716 124.19C49.9716 167.411 85.0094 202.449 128.231 202.449ZM128.231 176.363C157.045 176.363 180.403 153.004 180.403 124.19C180.403 95.3757 157.045 72.0171 128.231 72.0171C99.4164 72.0171 76.0579 95.3757 76.0579 124.19C76.0579 153.004 99.4164 176.363 128.231 176.363Z" clip-rule="evenodd"/><path fill="#98BDF2" fill-rule="evenodd" d="M49.9716 124.19L76.0579 124.19C76.0579 95.3757 99.4164 72.0171 128.231 72.0171C128.231 72.0171 128.231 72.0171 128.231 72.0171V45.9307C85.0094 45.9307 49.9716 80.9685 49.9716 124.19Z" clip-rule="evenodd"/><rect width="133.207" height="21.091" x="280.309" y="87.558" fill="#E4EFFF" rx="10.546"/><rect width="133.207" height="21.091" x="280.309" y="141.951" fill="#E4EFFF" rx="10.546"/><defs><filter id="filter0_dd_6407_141411" width="466.225" height="256.424" x=".019" y=".418" color-interpolation-filters="sRGB" filterUnits="userSpaceOnUse"><feFlood flood-opacity="0" result="BackgroundImageFix"/><feColorMatrix in="SourceAlpha" result="hardAlpha" type="matrix" values="0 0 0 0 0 0 0 0 0 0 0 0 0 0 0 0 0 0 127 0"/><feMorphology in="SourceAlpha" operator="dilate" radius="2.22" result="effect1_dropShadow_6407_141411"/><feOffset dy="4.44"/><feGaussianBlur stdDeviation="8.88"/><feColorMatrix type="matrix" values="0 0 0 0 0.039009 0 0 0 0 0.13338 0 0 0 0 0.232469 0 0 0 0.08 0"/><feBlend in2="BackgroundImageFix" mode="normal" result="effect1_dropShadow_6407_141411"/><feColorMatrix in="SourceAlpha" result="hardAlpha" type="matrix" values="0 0 0 0 0 0 0 0 0 0 0 0 0 0 0 0 0 0 127 0"/><feOffset/><feGaussianBlur stdDeviation="2.22"/><feColorMatrix type="matrix" values="0 0 0 0 0.0392157 0 0 0 0 0.133333 0 0 0 0 0.231373 0 0 0 0.04 0"/><feBlend in2="effect1_dropShadow_6407_141411" mode="normal" result="effect2_dropShadow_6407_141411"/><feBlend in="SourceGraphic" in2="effect2_dropShadow_6407_141411" mode="normal" result="shape"/></filter></defs></svg>