<svg xmlns="http://www.w3.org/2000/svg" xmlns:xlink="http://www.w3.org/1999/xlink" width="81" height="77" version="1.1" viewBox="0 0 81 77"><title>Module_icon</title><desc>Created with Sketch.</desc><defs><rect id="path-1" width="11" height="11" x="6" y="57" rx="5.5"/><filter id="filter-2" width="200%" height="200%" x="-50%" y="-50%" filterUnits="objectBoundingBox"><feOffset dx="0" dy="1" in="SourceAlpha" result="shadowOffsetOuter1"/><feColorMatrix in="shadowOffsetOuter1" type="matrix" values="0 0 0 0 0 0 0 0 0 0.466666667 0 0 0 0 0.807843137 0 0 0 1 0"/></filter><rect id="path-3" width="11" height="11" x="6" y="57" rx="5.5"/><filter id="filter-4" width="200%" height="200%" x="-50%" y="-50%" filterUnits="objectBoundingBox"><feOffset dx="0" dy="1" in="SourceAlpha" result="shadowOffsetOuter1"/><feColorMatrix in="shadowOffsetOuter1" type="matrix" values="0 0 0 0 0.392156863 0 0 0 0 0.588235294 0 0 0 0 0.862745098 0 0 0 1 0"/></filter><rect id="path-5" width="11" height="11" x="6" y="57" rx="5.5"/><filter id="filter-6" width="200%" height="200%" x="-50%" y="-50%" filterUnits="objectBoundingBox"><feOffset dx="0" dy="1" in="SourceAlpha" result="shadowOffsetOuter1"/><feColorMatrix in="shadowOffsetOuter1" type="matrix" values="0 0 0 0 1 0 0 0 0 0.674509804 0 0 0 0 0.678431373 0 0 0 1 0"/></filter></defs><g id="Page-1" fill="none" fill-rule="evenodd" stroke="none" stroke-width="1"><g id="Module_icon"><g id="Group-5"><g id="folder-3"><g id="Group"><rect id="Rectangle-path" width="23" height="23" x="0" y="54" fill="#DEEBF8"/><rect id="Rectangle-path" width="23" height="54" x="0" y="0" fill="#F2F8FE"/><rect id="Rectangle" width="9" height="30" x="7" y="6" fill="#DEEBF9" rx="3"/><g id="Rectangle-path"><use fill="#000" fill-opacity="1" filter="url(#filter-2)" xlink:href="#path-1"/><use fill="#20A0FF" fill-rule="evenodd" xlink:href="#path-1"/></g></g></g><g id="folder-3-copy" transform="translate(29.000000, 0.000000)"><g id="Group"><rect id="Rectangle-path" width="23" height="23" x="0" y="54" fill="#DEEBF8"/><rect id="Rectangle-path" width="23" height="54" x="0" y="0" fill="#F2F8FE"/><rect id="Rectangle" width="9" height="30" x="7" y="6" fill="#DEEBF9" rx="3"/><g id="Rectangle-path"><use fill="#000" fill-opacity="1" filter="url(#filter-4)" xlink:href="#path-3"/><use fill="#80A8E1" fill-rule="evenodd" xlink:href="#path-3"/></g></g></g><g id="folder-3-copy" transform="translate(58.000000, 0.000000)"><g id="Group"><rect id="Rectangle-path" width="23" height="23" x="0" y="54" fill="#DEEBF8"/><rect id="Rectangle-path" width="23" height="54" x="0" y="0" fill="#F2F8FE"/><rect id="Rectangle" width="9" height="30" x="7" y="6" fill="#DEEBF9" rx="3"/><g id="Rectangle-path"><use fill="#000" fill-opacity="1" filter="url(#filter-6)" xlink:href="#path-5"/><use fill="#FFD6D2" fill-rule="evenodd" xlink:href="#path-5"/></g></g></g></g></g></g></svg>